<svg width="960" height="680" viewBox="0 0 960 680" fill="none" xmlns="http://www.w3.org/2000/svg">
  <rect width="960" height="680" rx="34" fill="#F5F7FB"/>
  <rect x="54" y="50" width="852" height="580" rx="28" fill="#FFFFFF" stroke="#E6EAF3" stroke-width="2"/>
  <rect x="54" y="50" width="852" height="86" rx="28" fill="#1A1A2E"/>
  <path d="M54 108H906V136H54V108Z" fill="#1A1A2E"/>
  <circle cx="104" cy="93" r="13" fill="#E94560"/>
  <circle cx="143" cy="93" r="13" fill="#2F7BED"/>
  <circle cx="182" cy="93" r="13" fill="#FFFFFF" opacity=".72"/>
  <text x="232" y="101" fill="#FFFFFF" font-family="JetBrains Mono, Consolas, monospace" font-size="18" font-weight="700" letter-spacing="3">ELJONES AUDIT DESK</text>
  <rect x="96" y="180" width="242" height="172" rx="20" fill="#15152B"/>
  <path d="M217 214C264 214 302 252 302 299C302 346 264 384 217 384C170 384 132 346 132 299C132 252 170 214 217 214Z" stroke="#2F7BED" stroke-width="24"/>
  <path d="M217 214C251 214 281 234 295 264" stroke="#E94560" stroke-width="24" stroke-linecap="round"/>
  <text x="181" y="310" fill="#FFFFFF" font-family="Sora, Arial, sans-serif" font-size="42" font-weight="800">87</text>
  <text x="174" y="337" fill="#DDE6F7" font-family="JetBrains Mono, Consolas, monospace" font-size="13" font-weight="700" letter-spacing="2">SCORE</text>
  <rect x="374" y="180" width="490" height="74" rx="16" fill="#F5F7FB"/>
  <rect x="402" y="211" width="214" height="13" rx="6.5" fill="#1A1A2E"/>
  <rect x="402" y="235" width="360" height="9" rx="4.5" fill="#CBD5E8"/>
  <rect x="374" y="278" width="490" height="74" rx="16" fill="#F5F7FB"/>
  <rect x="402" y="309" width="166" height="13" rx="6.5" fill="#0F3460"/>
  <rect x="402" y="333" width="298" height="9" rx="4.5" fill="#CBD5E8"/>
  <rect x="96" y="392" width="768" height="52" rx="14" fill="#FFF4F6" stroke="#F6C8D1"/>
  <rect x="122" y="412" width="138" height="12" rx="6" fill="#E94560"/>
  <rect x="306" y="412" width="182" height="12" rx="6" fill="#CFD7E8"/>
  <rect x="710" y="408" width="100" height="20" rx="10" fill="#E94560"/>
  <rect x="96" y="466" width="768" height="52" rx="14" fill="#F7FAFF" stroke="#E6EAF3"/>
  <rect x="122" y="486" width="174" height="12" rx="6" fill="#0F3460"/>
  <rect x="336" y="486" width="218" height="12" rx="6" fill="#CFD7E8"/>
  <rect x="710" y="482" width="100" height="20" rx="10" fill="#2F7BED"/>
  <rect x="96" y="540" width="768" height="52" rx="14" fill="#F7FAFF" stroke="#E6EAF3"/>
  <rect x="122" y="560" width="196" height="12" rx="6" fill="#0F3460"/>
  <rect x="358" y="560" width="172" height="12" rx="6" fill="#CFD7E8"/>
  <rect x="710" y="556" width="100" height="20" rx="10" fill="#2F7BED"/>
</svg>
