<svg xmlns="http://www.w3.org/2000/svg" width="1800" height="1050" viewBox="0 0 1800 1050" role="img" aria-label="Friendly office team helping people improve websites on computers">
  <defs>
    <linearGradient id="wall" x1="0" y1="0" x2="1" y2="1">
      <stop offset="0" stop-color="#f7fbff"/>
      <stop offset="0.52" stop-color="#e9f0f8"/>
      <stop offset="1" stop-color="#d9e5f1"/>
    </linearGradient>
    <linearGradient id="screen" x1="0" y1="0" x2="1" y2="1">
      <stop offset="0" stop-color="#ffffff"/>
      <stop offset="1" stop-color="#d9e7ff"/>
    </linearGradient>
    <filter id="soft" x="-20%" y="-20%" width="140%" height="140%">
      <feGaussianBlur stdDeviation="5"/>
    </filter>
  </defs>
  <rect width="1800" height="1050" fill="url(#wall)"/>
  <rect x="1070" y="0" width="520" height="1050" fill="#ffffff" opacity="0.56"/>
  <path d="M0 760 C260 690 455 780 670 710 C980 610 1170 720 1800 610 L1800 1050 L0 1050 Z" fill="#cbd8e7" opacity="0.6"/>

  <g opacity="0.55" filter="url(#soft)">
    <rect x="730" y="300" width="690" height="420" rx="26" fill="#ffffff"/>
    <rect x="770" y="340" width="610" height="330" rx="18" fill="url(#screen)"/>
    <path d="M820 590 L955 490 L1080 545 L1250 415 L1340 470" fill="none" stroke="#2f7bed" stroke-width="18" stroke-linecap="round" stroke-linejoin="round"/>
    <rect x="830" y="380" width="250" height="28" rx="14" fill="#0f3460" opacity="0.72"/>
    <rect x="830" y="430" width="170" height="20" rx="10" fill="#e94560" opacity="0.72"/>
    <rect x="1040" y="430" width="260" height="20" rx="10" fill="#7f9bbe" opacity="0.65"/>
  </g>

  <g opacity="0.64">
    <ellipse cx="1010" cy="820" rx="520" ry="56" fill="#1a1a2e" opacity="0.12"/>

    <g transform="translate(650 430)">
      <circle cx="122" cy="86" r="58" fill="#d49b78"/>
      <path d="M62 88 C74 22 178 22 190 88 C160 54 96 54 62 88 Z" fill="#222437"/>
      <path d="M52 280 C62 178 91 144 124 144 C166 144 199 178 212 280 Z" fill="#0f3460"/>
      <rect x="81" y="159" width="84" height="116" rx="18" fill="#f7fbff" opacity="0.9"/>
      <path d="M93 162 L124 236 L154 162" fill="none" stroke="#e94560" stroke-width="11" stroke-linecap="round"/>
      <circle cx="104" cy="84" r="7" fill="#1a1a2e"/>
      <circle cx="143" cy="84" r="7" fill="#1a1a2e"/>
      <path d="M100 112 C115 126 137 126 152 112" fill="none" stroke="#1a1a2e" stroke-width="7" stroke-linecap="round"/>
    </g>

    <g transform="translate(1050 390)">
      <circle cx="108" cy="96" r="55" fill="#8f614e"/>
      <path d="M58 92 C72 34 152 25 178 76 C149 54 96 57 58 92 Z" fill="#2d2331"/>
      <path d="M38 302 C54 194 76 154 112 154 C158 154 190 197 204 302 Z" fill="#e94560"/>
      <rect x="74" y="169" width="76" height="128" rx="18" fill="#f7fbff" opacity="0.85"/>
      <circle cx="92" cy="92" r="7" fill="#1a1a2e"/>
      <circle cx="128" cy="92" r="7" fill="#1a1a2e"/>
      <path d="M91 118 C104 130 124 130 138 118" fill="none" stroke="#1a1a2e" stroke-width="7" stroke-linecap="round"/>
      <path d="M180 212 C245 212 281 178 319 126" fill="none" stroke="#8f614e" stroke-width="28" stroke-linecap="round"/>
      <circle cx="326" cy="116" r="20" fill="#8f614e"/>
    </g>

    <g transform="translate(1290 520)">
      <circle cx="88" cy="76" r="46" fill="#c68963"/>
      <path d="M43 72 C53 21 123 13 149 58 C123 43 76 43 43 72 Z" fill="#1a1a2e"/>
      <path d="M24 262 C37 172 59 130 91 130 C133 130 161 170 176 262 Z" fill="#2f7bed"/>
      <circle cx="75" cy="74" r="6" fill="#1a1a2e"/>
      <circle cx="105" cy="74" r="6" fill="#1a1a2e"/>
      <path d="M74 100 C86 110 102 110 114 100" fill="none" stroke="#1a1a2e" stroke-width="6" stroke-linecap="round"/>
    </g>

    <g transform="translate(815 760)">
      <rect width="500" height="34" rx="17" fill="#7f9bbe"/>
      <rect x="70" y="-205" width="360" height="220" rx="22" fill="#1a1a2e"/>
      <rect x="96" y="-179" width="308" height="160" rx="12" fill="#eef5ff"/>
      <rect x="128" y="-145" width="96" height="18" rx="9" fill="#e94560"/>
      <rect x="128" y="-106" width="232" height="14" rx="7" fill="#0f3460" opacity="0.6"/>
      <rect x="128" y="-72" width="180" height="14" rx="7" fill="#2f7bed" opacity="0.62"/>
    </g>
  </g>

  <rect width="980" height="1050" fill="#1a1a2e" opacity="0.92"/>
  <linearGradient id="fade" x1="0" y1="0" x2="1" y2="0">
    <stop offset="0" stop-color="#1a1a2e" stop-opacity="1"/>
    <stop offset="0.72" stop-color="#1a1a2e" stop-opacity="0.92"/>
    <stop offset="1" stop-color="#1a1a2e" stop-opacity="0"/>
  </linearGradient>
  <rect width="1320" height="1050" fill="url(#fade)"/>
</svg>
