<svg width="960" height="680" viewBox="0 0 960 680" fill="none" xmlns="http://www.w3.org/2000/svg">
  <rect width="960" height="680" rx="34" fill="#15152B"/>
  <rect x="96" y="54" width="768" height="572" rx="26" fill="#FFFFFF"/>
  <rect x="142" y="104" width="180" height="18" rx="9" fill="#2F7BED"/>
  <rect x="142" y="142" width="396" height="34" rx="8" fill="#1A1A2E"/>
  <rect x="142" y="192" width="284" height="13" rx="6.5" fill="#CBD5E8"/>
  <rect x="142" y="220" width="516" height="13" rx="6.5" fill="#CBD5E8"/>
  <rect x="142" y="248" width="448" height="13" rx="6.5" fill="#CBD5E8"/>
  <rect x="650" y="116" width="136" height="136" rx="24" fill="#FFF4F6" stroke="#F6C8D1"/>
  <text x="682" y="178" fill="#E94560" font-family="Sora, Arial, sans-serif" font-size="48" font-weight="800">87</text>
  <text x="676" y="212" fill="#1A1A2E" font-family="JetBrains Mono, Consolas, monospace" font-size="14" font-weight="700" letter-spacing="2">/ 100</text>
  <rect x="142" y="324" width="676" height="62" rx="16" fill="#F5F7FB"/>
  <rect x="168" y="347" width="176" height="14" rx="7" fill="#0F3460"/>
  <rect x="390" y="347" width="260" height="14" rx="7" fill="#D9E0EE"/>
  <rect x="702" y="338" width="74" height="32" rx="16" fill="#E94560"/>
  <rect x="142" y="410" width="676" height="62" rx="16" fill="#F5F7FB"/>
  <rect x="168" y="433" width="230" height="14" rx="7" fill="#0F3460"/>
  <rect x="444" y="433" width="178" height="14" rx="7" fill="#D9E0EE"/>
  <rect x="702" y="424" width="74" height="32" rx="16" fill="#2F7BED"/>
  <rect x="142" y="496" width="676" height="62" rx="16" fill="#F5F7FB"/>
  <rect x="168" y="519" width="204" height="14" rx="7" fill="#0F3460"/>
  <rect x="418" y="519" width="226" height="14" rx="7" fill="#D9E0EE"/>
  <rect x="702" y="510" width="74" height="32" rx="16" fill="#2F7BED"/>
  <path d="M96 626H864" stroke="#E6EAF3" stroke-width="2"/>
  <text x="142" y="596" fill="#5A6076" font-family="JetBrains Mono, Consolas, monospace" font-size="16" font-weight="700" letter-spacing="2">PRIORITISED FIX LIST</text>
</svg>
